<?xml version="1.0" encoding="utf-8" ?>
<svg xmlns="http://www.w3.org/2000/svg" xmlns:xlink="http://www.w3.org/1999/xlink" width="2048" height="2048">
	<defs>
		<linearGradient id="gradient_0" gradientUnits="userSpaceOnUse" x1="764.82025" y1="842.93793" x2="261.1814" y2="229.6696">
			<stop offset="0" stop-color="#CE5634"/>
			<stop offset="1" stop-color="#F4A429"/>
		</linearGradient>
	</defs>
	<path fill="url(#gradient_0)" transform="scale(2 2)" d="M478.239 79.2873C492.572 78.5081 507.06 78.7267 521.411 78.8218C532.677 78.8964 544.766 78.2044 555.804 80.6408Q558.17 81.1572 560.469 81.9172Q562.769 82.6773 564.976 83.6728Q567.184 84.6682 569.276 85.8882Q571.368 87.1083 573.321 88.5396C583.775 96.2836 590.348 108.449 592.105 121.253Q592.277 122.464 592.389 123.682Q592.501 124.9 592.554 126.122Q592.606 127.344 592.598 128.567Q592.59 129.791 592.522 131.012Q592.453 132.233 592.325 133.45Q592.197 134.666 592.009 135.875Q591.821 137.084 591.574 138.282Q591.327 139.479 591.021 140.664Q590.715 141.848 590.352 143.016Q589.988 144.184 589.567 145.333Q589.146 146.481 588.67 147.608Q588.193 148.734 587.661 149.836Q587.13 150.937 586.544 152.011Q585.959 153.086 585.322 154.13Q584.685 155.174 583.997 156.185Q583.309 157.197 582.572 158.173C574.21 169.187 563.219 173.825 549.838 175.708Q549.918 200.314 549.584 224.917C613.334 232.586 662.529 249.47 715.409 286.429C721.929 280.366 728.071 273.797 734.362 267.491C729.141 262.881 721.725 258.19 717.903 252.31C717.149 251.15 716.647 250.245 717.028 248.849C718.355 243.99 742.557 219.708 747.785 216.716C759.378 224.917 774.231 242.421 784.937 253.112C791.963 260.127 799.996 266.683 806.53 274.112C808.083 275.878 810.078 278.134 809.934 280.558C805.791 287.598 784.82 307.132 777.859 312.964C772.468 308.582 767.69 303.443 762.801 298.522C758.559 302.583 754.208 306.542 749.906 310.541C756.203 317.217 763.415 323.229 770.126 329.501Q779.511 338.376 787.982 348.127Q790.239 350.736 792.446 353.388Q794.653 356.04 796.808 358.734Q798.963 361.428 801.066 364.163Q803.17 366.898 805.219 369.673Q807.269 372.448 809.266 375.262Q811.262 378.076 813.203 380.928Q815.145 383.779 817.031 386.668Q818.917 389.557 820.748 392.481Q822.578 395.406 824.352 398.365Q826.125 401.324 827.842 404.317Q829.558 407.31 831.216 410.335Q832.875 413.361 834.475 416.417Q836.074 419.474 837.615 422.561Q839.156 425.648 840.636 428.764Q842.117 431.88 843.538 435.024Q844.959 438.168 846.318 441.339Q847.678 444.509 848.977 447.706Q850.275 450.902 851.512 454.123Q852.749 457.344 853.923 460.588Q855.097 463.832 856.209 467.098Q857.321 470.364 858.37 473.651Q859.418 476.937 860.403 480.244Q861.388 483.55 862.31 486.875Q863.231 490.2 864.088 493.542Q864.945 496.883 865.738 500.241Q866.53 503.599 867.258 506.971Q867.986 510.344 868.649 513.73Q869.311 517.115 869.909 520.513Q870.506 523.911 871.038 527.32Q871.569 530.729 872.036 534.147Q872.502 537.566 872.902 540.992Q873.302 544.419 873.636 547.853Q874.068 552.225 874.392 556.607Q874.717 560.989 874.936 565.377Q875.154 569.765 875.265 574.157Q875.376 578.55 875.38 582.943Q875.384 587.337 875.281 591.729Q875.179 596.122 874.969 600.51Q874.759 604.899 874.442 609.281Q874.126 613.664 873.703 618.037Q873.279 622.41 872.75 626.772Q872.22 631.133 871.584 635.481Q870.949 639.828 870.207 644.159Q869.466 648.489 868.619 652.801Q867.772 657.112 866.821 661.401Q865.87 665.691 864.814 669.956Q863.758 674.221 862.599 678.459Q861.44 682.697 860.178 686.905Q858.916 691.114 857.552 695.29Q856.188 699.467 854.722 703.609Q853.257 707.751 851.691 711.856Q850.125 715.961 848.459 720.027Q846.794 724.093 845.03 728.117Q843.266 732.141 841.404 736.12Q839.543 740.1 837.585 744.034Q835.627 747.967 833.574 751.851Q831.521 755.736 829.374 759.569Q827.227 763.402 824.987 767.182Q822.747 770.962 820.416 774.686Q818.085 778.411 815.664 782.077Q813.242 785.743 810.733 789.349Q808.223 792.956 805.626 796.5Q803.029 800.044 800.347 803.524Q797.664 807.004 794.898 810.417C749.391 866.495 685.682 911.01 616.138 931.253C590.519 938.709 564.651 942.685 538.168 945.431C526.873 945.74 515.834 946.741 504.497 946.301C403.264 942.377 314.053 903.342 244.939 828.73Q241.901 825.45 238.944 822.096Q235.988 818.742 233.114 815.317Q230.241 811.891 227.452 808.397Q224.663 804.902 221.961 801.34Q219.258 797.778 216.644 794.151Q214.03 790.524 211.505 786.834Q208.981 783.144 206.547 779.393Q204.114 775.642 201.773 771.833Q199.433 768.024 197.186 764.158Q194.939 760.292 192.788 756.373Q190.637 752.454 188.582 748.483Q186.527 744.512 184.571 740.492Q182.614 736.472 180.756 732.405Q178.899 728.338 177.141 724.227Q175.384 720.116 173.728 715.963Q172.071 711.81 170.518 707.617Q168.964 703.425 167.513 699.196Q166.062 694.967 164.716 690.704Q163.369 686.44 162.127 682.145Q160.885 677.85 159.749 673.526Q158.613 669.201 157.583 664.851Q156.553 660.5 155.63 656.125Q154.707 651.75 153.892 647.354Q153.077 642.958 152.369 638.544Q151.661 634.129 151.062 629.698Q150.463 625.268 149.973 620.824Q149.482 616.38 149.101 611.925Q148.72 607.47 148.448 603.007Q148.176 598.545 148.013 594.077Q147.85 589.609 147.797 585.138Q147.744 580.667 147.801 576.197Q147.857 571.726 148.023 567.258Q148.284 561.302 148.753 555.358Q149.222 549.414 149.898 543.49Q150.575 537.567 151.459 531.67Q152.342 525.774 153.431 519.912Q154.52 514.05 155.814 508.23Q157.107 502.41 158.603 496.638Q160.1 490.867 161.797 485.151Q163.494 479.436 165.39 473.783C188.378 403.78 221.845 358.263 275.548 308.56Q269.07 302.494 262.508 296.518C257.193 302.534 251.054 307.952 245.148 313.373C235.318 300.962 223.092 290.777 212.608 278.981C219.363 271.113 227.806 263.797 235.255 256.517Q256.041 236.314 276.524 215.803C286.883 226.408 297.224 236.983 307.114 248.033C301.886 254.986 295.103 261.113 288.942 267.219C294.548 273.548 300.415 279.67 306.194 285.842C313.792 280.748 321.145 275.424 329.01 270.728C361.068 251.59 396.232 239.268 432.492 230.925C446.045 227.806 460.144 224.596 474.02 223.402L474.041 175.749C464.9 174.749 455.733 171.243 448.639 165.339C438.64 157.017 432.364 144.273 431.319 131.345C430.274 118.418 435.143 104.525 443.639 94.7871C452.762 84.3314 464.725 80.2739 478.239 79.2873ZM509.263 259.722C487.853 260.693 466.672 262.38 445.619 266.605C377.571 280.261 316.376 317.139 269.841 368.159C217.33 425.732 183.043 511.337 186.753 589.713C187.82 612.249 190.055 634.374 195.179 656.385C209.239 716.785 244.649 778.821 290.646 820.59Q302.275 831.164 314.807 840.65Q327.339 850.136 340.672 858.458C353.109 866.362 365.683 873.763 379.068 879.954C421.517 899.587 469.122 907.386 515.625 907.522C597.249 907.874 682.992 869.379 740.528 812.266C800.465 752.771 836.315 673.001 836.575 588.09C836.841 500.972 805.233 419.532 743.543 357.521C726.039 339.925 706.291 323.597 685.327 310.287C635.953 278.94 574.404 259.596 515.751 259.584Q512.506 259.595 509.263 259.722ZM527.75 97.2262C518.751 97.55 509.772 97.4491 500.771 97.3823C485.921 97.2721 468.245 95.6963 457.274 107.876C452.022 113.707 449.877 121.627 450.423 129.354C451.008 137.648 455.137 145.004 461.399 150.366C471.808 159.279 484.536 157.843 497.318 157.502C510.108 157.496 541.921 158.721 552.995 155.781C557.75 154.519 562.064 152.159 565.543 148.653C571.266 142.884 574.226 134.682 574.074 126.61C573.924 118.602 570.543 110.429 564.602 104.991C554.755 95.9777 540.221 96.6295 527.75 97.2262ZM518.404 175.762L492.483 176.01C492.47 191.727 492.384 207.413 493.009 223.121L505.442 223.096L530.41 223.569C530.397 207.653 529.872 191.613 530.27 175.712L518.404 175.762Z"/>
	<defs>
		<linearGradient id="gradient_1" gradientUnits="userSpaceOnUse" x1="696.74988" y1="799.28558" x2="326.22949" y2="367.44211">
			<stop offset="0" stop-color="#D15735"/>
			<stop offset="1" stop-color="#EE9229"/>
		</linearGradient>
	</defs>
	<path fill="url(#gradient_1)" transform="scale(2 2)" d="M506.712 297.748Q508.553 297.701 510.394 297.682C588.596 296.9 659.915 329.393 715.263 383.57C769.289 436.452 797.589 507.92 798.33 583.073C799.083 659.326 767.929 730.017 714.871 784.172C663.766 836.335 590.922 868.835 517.625 869.507C445.369 870.346 379.801 847.842 325.284 799.775Q319.108 794.437 313.216 788.786Q307.323 783.135 301.731 777.188Q296.139 771.241 290.861 765.012Q285.584 758.784 280.635 752.291Q277.626 748.184 274.764 743.974Q271.902 739.764 269.19 735.455Q266.479 731.147 263.921 726.745Q261.363 722.343 258.962 717.854Q256.562 713.365 254.321 708.793Q252.08 704.222 250.002 699.575Q247.924 694.927 246.012 690.209Q244.099 685.491 242.355 680.709Q240.61 675.926 239.035 671.085Q237.46 666.244 236.057 661.35Q234.654 656.456 233.425 651.516Q232.196 646.575 231.142 641.595Q230.088 636.614 229.21 631.599Q228.333 626.585 227.633 621.542Q226.933 616.5 226.412 611.435Q225.89 606.371 225.548 601.292Q225.142 595.376 224.995 589.448Q224.848 583.521 224.962 577.592Q225.076 571.663 225.449 565.745Q225.822 559.828 226.455 553.932Q227.088 548.036 227.978 542.173Q228.869 536.311 230.015 530.493Q231.162 524.676 232.563 518.914Q233.964 513.152 235.616 507.457C248.466 461.974 267.45 429.051 298.806 393.535Q300.79 391.298 302.821 389.104Q304.852 386.909 306.929 384.758Q309.006 382.607 311.128 380.501Q313.25 378.394 315.416 376.333Q317.582 374.272 319.791 372.257Q322.001 370.242 324.252 368.274Q326.503 366.307 328.796 364.387Q331.088 362.468 333.421 360.597Q335.754 358.726 338.125 356.906Q340.497 355.085 342.907 353.314Q345.317 351.544 347.763 349.826Q350.21 348.107 352.692 346.44Q355.175 344.773 357.692 343.16Q360.209 341.546 362.76 339.986Q365.311 338.426 367.894 336.92Q370.477 335.414 373.092 333.964Q375.707 332.513 378.351 331.118Q380.996 329.723 383.669 328.384Q386.343 327.045 389.044 325.763Q391.746 324.482 394.474 323.257Q397.201 322.033 399.955 320.866Q402.708 319.7 405.485 318.592Q408.262 317.484 411.062 316.435Q413.862 315.386 416.684 314.397Q419.506 313.408 422.348 312.478Q425.189 311.549 428.05 310.68Q430.911 309.811 433.79 309.003Q436.669 308.194 439.564 307.447Q442.459 306.7 445.37 306.014Q448.28 305.328 451.204 304.704Q454.128 304.081 457.065 303.519Q460.002 302.957 462.95 302.457C477.491 299.876 491.982 298.648 506.712 297.748ZM520.476 315.37Q520.596 333.741 520.439 352.111C518.544 354.724 516.714 356.883 513.366 357.385C510.638 357.795 507.732 357.579 505.541 355.748C502.245 352.994 501.584 348.158 501.358 344.125C500.836 334.842 501.388 325.28 501.837 315.996L501.247 315.756C460.135 318.247 422.307 328.056 385.812 347.39C389.553 354.995 405.443 378.093 402.8 385.439C402.002 387.658 399.858 389.272 397.768 390.226C395.9 391.079 393.919 391.181 391.986 390.465C384.048 387.524 373.424 363.935 369.54 356.482C343.934 373.648 321.816 393.842 302.045 417.533C295.735 425.094 289.483 432.752 284.773 441.439C292.063 445.015 316.206 456.739 318.569 463.784C319.268 465.867 318.887 467.99 317.771 469.853C316.419 472.11 314.055 473.806 311.5 474.406Q310.967 474.535 310.421 474.595Q309.876 474.654 309.328 474.644Q308.779 474.634 308.237 474.553Q307.694 474.473 307.166 474.324C301.042 472.59 281.834 461.069 275.501 457.36C270.992 466.302 266.337 475.233 262.501 484.491C253.725 505.672 247.892 529.401 245.001 552.122C244.051 559.592 243.943 567.027 243.22 574.48C250.938 574.448 278.42 572.484 283.155 577.399C284.969 579.28 285.627 582.045 285.392 584.595C285.175 586.943 284.19 589.342 282.346 590.879C278.695 593.921 250.143 592.628 243.26 593C245.257 631.302 255.096 678.353 276.324 710.872C283.75 705.839 302.113 691.428 310.576 692.812C313.126 693.229 315.268 694.838 316.618 697.015C317.657 698.693 317.949 700.576 317.442 702.489C315.201 710.948 293.168 721.68 285.406 726.828Q287.367 729.971 289.417 733.058Q291.467 736.144 293.604 739.171Q295.74 742.198 297.962 745.162Q300.184 748.127 302.489 751.028Q304.794 753.929 307.18 756.763Q309.567 759.597 312.033 762.362Q314.499 765.127 317.042 767.821Q319.586 770.515 322.205 773.136Q324.824 775.756 327.516 778.302Q330.209 780.847 332.972 783.315Q335.736 785.782 338.568 788.171Q341.401 790.559 344.3 792.866Q347.199 795.173 350.163 797.396Q353.126 799.62 356.152 801.758Q359.177 803.897 362.262 805.949Q365.347 808.001 368.489 809.964C372.039 803.738 385.744 779.494 391.632 777.777C394.027 777.079 396.494 777.965 398.528 779.234C400.749 780.621 402.814 782.538 403.288 785.227C404.755 793.542 388.694 811.942 384.713 819.983C420.796 840.309 460.742 850.493 502.012 852.045C501.701 842.968 499.099 819.815 505.156 813.51C506.838 811.759 508.994 810.992 511.395 810.998C513.758 811.004 515.979 811.689 517.641 813.422C525.249 821.348 517.918 848.024 520.971 852.068L521.875 852.064C551.546 851.415 583.399 845.056 610.577 832.977C620.355 828.632 629.471 822.924 639.196 818.555C637.166 814.784 635.071 811.131 632.726 807.544C628.482 801.052 618.787 790.032 620.952 781.855Q621.041 781.519 621.162 781.193Q621.284 780.866 621.437 780.554Q621.59 780.241 621.773 779.945Q621.956 779.649 622.167 779.373Q622.378 779.096 622.615 778.842Q622.852 778.587 623.113 778.357Q623.374 778.127 623.657 777.924Q623.939 777.721 624.24 777.546C626.209 776.412 628.598 776.217 630.76 776.866C633.2 777.598 635.133 779.279 636.766 781.176C639.825 784.73 641.91 789.35 644.349 793.35C647.582 798.651 651.059 803.817 654.318 809.11C679.352 793.259 700.734 775.238 719.59 752.263C725.79 744.708 730.795 736.149 737.28 728.856C729.953 724.134 707.675 714.483 705.706 706.005C705.123 703.491 705.538 700.824 706.972 698.668C708.11 696.957 709.749 695.799 711.774 695.396C720.49 693.663 739.438 707.746 746.693 712.439C770.461 670.447 777.064 640.518 780.709 592.783C771.634 593.196 748.218 595.922 741.555 589.84C739.903 588.333 739.07 586.331 739.047 584.107C739.022 581.844 739.69 579.776 741.289 578.137C747.107 572.174 764.072 574.34 771.842 574.516L780.033 574.714C779.469 533.077 767.68 493.651 748.659 456.754C737.862 463.361 726.935 470.784 715.294 475.797C712.025 474.485 708.515 473.005 707.085 469.49C706.313 467.594 706.54 465.635 707.358 463.793C710.563 456.571 732.102 445.494 739.065 440.724C716.975 407 689.381 377.719 654.395 357.148C650.012 364.919 639.74 388.387 631.084 390.497C628.85 391.042 626.397 390.541 624.487 389.281C622.852 388.201 621.85 386.561 621.499 384.646C619.721 374.948 633.922 355.646 638.595 346.613C604.322 328.209 559.482 315.374 520.476 315.37Z"/>
	<path fill="#EA9F49" transform="scale(2 2)" d="M534.802 381.484C534.413 386.286 532.088 391.553 530.856 396.248C528.459 405.382 527.204 415.104 527.023 424.525C526.173 468.761 552.687 503.118 577.807 536.721C587.164 549.238 596.26 561.234 603.326 575.256C621.646 611.609 627.036 656.793 613.98 695.763C600.056 737.326 564.059 755.463 527.653 773.637Q528.712 772.776 529.709 771.842C553.937 748.892 572.425 718.91 573.443 684.83C574.97 633.754 538.715 590.188 505.855 555.039C511.829 569.706 517.194 588.749 517.422 604.599C517.687 623.03 509.412 639.398 496.795 652.403C489.636 659.408 481.504 665.481 475.283 673.397Q474.373 674.564 473.521 675.775Q472.669 676.985 471.877 678.236Q471.085 679.486 470.355 680.774Q469.624 682.061 468.958 683.383Q468.291 684.705 467.689 686.057Q467.088 687.409 466.553 688.79Q466.018 690.17 465.55 691.574Q465.083 692.979 464.685 694.404Q464.286 695.83 463.958 697.273Q463.63 698.717 463.372 700.174Q463.114 701.632 462.927 703.1Q462.741 704.569 462.626 706.045Q462.511 707.52 462.468 709Q462.425 710.479 462.454 711.959Q462.484 713.439 462.585 714.916Q462.686 716.393 462.859 717.863C465.734 741.017 481.692 763.01 499.722 777.207C486.896 771.545 474.147 765.798 462.755 757.494Q461.246 756.371 459.764 755.212Q458.282 754.052 456.829 752.858Q455.376 751.663 453.952 750.434Q452.528 749.204 451.134 747.941Q449.74 746.677 448.377 745.381Q447.014 744.084 445.683 742.755Q444.352 741.425 443.053 740.064Q441.754 738.704 440.488 737.312Q439.223 735.92 437.991 734.498Q436.759 733.076 435.562 731.624Q434.365 730.173 433.204 728.693Q432.042 727.213 430.916 725.706Q429.791 724.199 428.702 722.664Q427.613 721.13 426.562 719.57Q425.51 718.01 424.496 716.425Q423.483 714.841 422.508 713.232Q421.533 711.623 420.597 709.991Q419.661 708.359 418.765 706.705Q417.869 705.051 417.013 703.376Q416.156 701.7 415.341 700.005Q414.526 698.31 413.751 696.595Q412.977 694.88 412.245 693.148Q411.512 691.415 410.821 689.665Q410.131 687.915 409.483 686.149Q408.834 684.383 408.229 682.602Q407.624 680.82 407.061 679.025Q406.499 677.23 405.98 675.422Q405.462 673.613 404.987 671.793Q404.512 669.972 404.081 668.141Q403.65 666.31 403.264 664.469Q402.877 662.628 402.535 660.778Q402.193 658.928 401.896 657.07C394.753 611.088 407.283 564.526 434.523 527.115C434.354 535.267 434.105 543.334 435.745 551.373C441.402 579.108 460.604 597.849 483.336 612.895C462.637 589.704 455.148 564.936 455.523 533.972C456.039 491.492 477.318 455.651 501.298 422.217C511.594 407.863 522.178 393.883 534.802 381.484Z"/>
</svg>
